<svg width="684" height="617" viewBox="0 0 684 617" fill="none" xmlns="http://www.w3.org/2000/svg">
<g opacity="0.2">
<path d="M336.895 435.531C338.822 434.419 341.286 435.08 342.398 437.006C343.51 438.932 342.85 441.397 340.924 442.509C338.997 443.621 336.533 442.96 335.421 441.034C334.321 439.129 334.969 436.643 336.895 435.531Z" fill="url(#paint0_linear_3_434)"/>
<path d="M418.34 393.96L417.673 392.804L340.622 437.289L341.289 438.445L418.34 393.96Z" fill="url(#paint1_linear_3_434)"/>
<path d="M340.407 222.498C342.333 221.386 344.798 222.046 345.91 223.973C347.022 225.899 346.362 228.363 344.435 229.475C342.509 230.588 340.045 229.927 338.933 228.001C337.82 226.075 338.481 223.61 340.407 222.498Z" fill="url(#paint2_linear_3_434)"/>
<path d="M421.839 180.905L421.172 179.75L344.1 224.247L344.767 225.403L421.839 180.905Z" fill="url(#paint3_linear_3_434)"/>
<path d="M447.438 218.521C449.364 217.409 451.828 218.069 452.941 219.995C454.053 221.922 453.392 224.386 451.466 225.498C449.54 226.61 447.075 225.95 445.963 224.024C444.851 222.097 445.511 219.633 447.438 218.521Z" fill="url(#paint4_linear_3_434)"/>
<path d="M528.882 176.949L528.215 175.793L451.164 220.279L451.831 221.435L528.882 176.949Z" fill="url(#paint5_linear_3_434)"/>
<path d="M449.855 263.584C451.781 262.472 454.245 263.132 455.358 265.059C456.47 266.985 455.809 269.449 453.883 270.561C451.957 271.674 449.492 271.013 448.38 269.087C447.259 267.194 447.907 264.709 449.855 263.584Z" fill="url(#paint6_linear_3_434)"/>
<path d="M531.278 222.025L530.611 220.869L453.538 265.367L454.205 266.523L531.278 222.025Z" fill="url(#paint7_linear_3_434)"/>
<path d="M283.712 435.302C285.638 434.19 288.103 434.851 289.215 436.777C290.327 438.703 289.667 441.168 287.74 442.28C285.814 443.392 283.35 442.731 282.237 440.805C281.125 438.879 281.786 436.414 283.712 435.302Z" fill="url(#paint8_linear_3_434)"/>
<path d="M365.157 393.731L364.489 392.575L287.438 437.06L288.105 438.216L365.157 393.731Z" fill="url(#paint9_linear_3_434)"/>
<path d="M539.3 359.738C541.227 358.626 543.691 359.286 544.803 361.213C545.915 363.139 545.255 365.603 543.329 366.715C541.402 367.828 538.938 367.167 537.826 365.241C536.714 363.315 537.374 360.85 539.3 359.738Z" fill="url(#paint10_linear_3_434)"/>
<path d="M620.711 318.158L620.044 317.002L542.993 361.487L543.66 362.643L620.711 318.158Z" fill="url(#paint11_linear_3_434)"/>
<path d="M487.13 261.469C489.056 260.356 491.521 261.017 492.633 262.943C493.745 264.869 493.085 267.334 491.159 268.446C489.232 269.558 486.768 268.898 485.656 266.971C484.544 265.045 485.204 262.581 487.13 261.469Z" fill="url(#paint12_linear_3_434)"/>
<path d="M530.028 242.152L529.361 240.996L490.835 263.239L491.502 264.395L530.028 242.152Z" fill="url(#paint13_linear_3_434)"/>
<path d="M369.404 504.886C371.33 503.774 373.794 504.435 374.907 506.361C376.019 508.287 375.358 510.752 373.432 511.864C371.506 512.976 369.041 512.315 367.929 510.389C366.829 508.484 367.477 505.998 369.404 504.886Z" fill="url(#paint14_linear_3_434)"/>
<path d="M412.323 485.558L411.655 484.402L373.13 506.645L373.797 507.8L412.323 485.558Z" fill="url(#paint15_linear_3_434)"/>
<path d="M495.257 101.162C497.183 100.05 499.648 100.71 500.76 102.636C501.872 104.562 501.212 107.027 499.286 108.139C497.359 109.251 494.895 108.591 493.783 106.665C492.683 104.76 493.331 102.274 495.257 101.162Z" fill="url(#paint16_linear_3_434)"/>
<path d="M538.155 81.8452L537.488 80.6895L498.962 102.932L499.629 104.088L538.155 81.8452Z" fill="url(#paint17_linear_3_434)"/>
<path d="M457.662 186.306C459.588 185.194 462.052 185.855 463.164 187.781C464.277 189.707 463.616 192.172 461.69 193.284C459.764 194.396 457.299 193.736 456.187 191.809C455.075 189.883 455.735 187.419 457.662 186.306Z" fill="url(#paint18_linear_3_434)"/>
<path d="M500.581 166.978L499.913 165.822L461.388 188.065L462.055 189.22L500.581 166.978Z" fill="url(#paint19_linear_3_434)"/>
<path d="M576.163 268.282C578.089 267.17 580.553 267.83 581.666 269.757C582.778 271.683 582.117 274.147 580.191 275.259C578.265 276.372 575.8 275.711 574.688 273.785C573.567 271.892 574.236 269.394 576.163 268.282Z" fill="url(#paint20_linear_3_434)"/>
<path d="M619.06 248.966L618.393 247.81L579.868 270.053L580.535 271.208L619.06 248.966Z" fill="url(#paint21_linear_3_434)"/>
<path d="M266.194 382.52C268.12 381.407 270.585 382.068 271.697 383.994C272.809 385.92 272.149 388.385 270.222 389.497C268.296 390.609 265.832 389.949 264.72 388.022C263.607 386.096 264.268 383.632 266.194 382.52Z" fill="url(#paint22_linear_3_434)"/>
<path d="M347.626 340.927L346.959 339.771L269.886 384.269L270.554 385.425L347.626 340.927Z" fill="url(#paint23_linear_3_434)"/>
<path d="M337.359 183.706C339.285 182.594 341.75 183.254 342.862 185.181C343.974 187.107 343.314 189.571 341.387 190.684C339.461 191.796 336.996 191.135 335.884 189.209C334.772 187.283 335.433 184.818 337.359 183.706Z" fill="url(#paint24_linear_3_434)"/>
<path d="M418.782 142.147L418.115 140.991L341.064 185.477L341.731 186.632L418.782 142.147Z" fill="url(#paint25_linear_3_434)"/>
<path d="M365.062 459.307C366.989 458.195 369.453 458.855 370.565 460.782C371.677 462.708 371.017 465.172 369.091 466.285C367.164 467.397 364.7 466.736 363.588 464.81C362.454 462.896 363.115 460.432 365.062 459.307Z" fill="url(#paint26_linear_3_434)"/>
<path d="M446.473 417.727L445.806 416.571L368.733 461.069L369.401 462.225L446.473 417.727Z" fill="url(#paint27_linear_3_434)"/>
<path d="M323.486 96.6573C325.413 95.5451 327.877 96.2055 328.989 98.1318C330.101 100.058 329.441 102.523 327.515 103.635C325.589 104.747 323.124 104.086 322.012 102.16C320.9 100.234 321.56 97.7694 323.486 96.6573Z" fill="url(#paint28_linear_3_434)"/>
<path d="M404.919 55.0645L404.251 53.9087L327.179 98.4065L327.846 99.5623L404.919 55.0645Z" fill="url(#paint29_linear_3_434)"/>
<path d="M73.8378 403.256C75.7641 402.144 78.2286 402.804 79.3407 404.73C80.4528 406.656 79.7925 409.121 77.8662 410.233C75.94 411.345 73.4755 410.685 72.3633 408.759C71.2298 406.845 71.9115 404.368 73.8378 403.256Z" fill="url(#paint30_linear_3_434)"/>
<path d="M344.088 252.649L343.421 251.493L77.5302 405.005L78.1975 406.161L344.088 252.649Z" fill="url(#paint31_linear_3_434)"/>
<path d="M42.3044 316.016C44.2306 314.904 46.6951 315.564 47.8073 317.49C48.9194 319.416 48.259 321.881 46.3328 322.993C44.4065 324.105 41.942 323.445 40.8299 321.519C39.6963 319.605 40.3567 317.14 42.3044 316.016Z" fill="url(#paint32_linear_3_434)"/>
<path d="M454.79 83.3171L454.123 82.1614L45.9878 317.799L46.655 318.954L454.79 83.3171Z" fill="url(#paint33_linear_3_434)"/>
<path d="M311.49 463.298C313.416 462.186 315.881 462.846 316.993 464.772C318.105 466.699 317.445 469.163 315.518 470.275C313.592 471.387 311.128 470.727 310.015 468.801C308.903 466.875 309.564 464.41 311.49 463.298Z" fill="url(#paint34_linear_3_434)"/>
<path d="M581.74 312.691L581.073 311.535L315.182 465.047L315.85 466.203L581.74 312.691Z" fill="url(#paint35_linear_3_434)"/>
<path d="M179.301 414.309C181.228 413.197 183.692 413.857 184.804 415.783C185.916 417.71 185.256 420.174 183.33 421.286C181.403 422.398 178.939 421.738 177.827 419.812C176.693 417.898 177.375 415.421 179.301 414.309Z" fill="url(#paint36_linear_3_434)"/>
<path d="M449.543 263.736L448.875 262.58L182.985 416.092L183.652 417.248L449.543 263.736Z" fill="url(#paint37_linear_3_434)"/>
<path d="M118.601 259.695C120.527 258.582 122.992 259.243 124.104 261.169C125.216 263.095 124.555 265.56 122.629 266.672C120.703 267.784 118.238 267.124 117.126 265.198C116.014 263.271 116.675 260.807 118.601 259.695Z" fill="url(#paint38_linear_3_434)"/>
<path d="M388.851 109.088L388.184 107.932L122.293 261.444L122.96 262.6L388.851 109.088Z" fill="url(#paint39_linear_3_434)"/>
<path d="M428.186 369.098C430.112 367.986 432.577 368.646 433.689 370.573C434.801 372.499 434.141 374.963 432.214 376.076C430.288 377.188 427.823 376.527 426.711 374.601C425.578 372.687 426.238 370.223 428.186 369.098Z" fill="url(#paint40_linear_3_434)"/>
<path d="M579.661 287.094L578.994 285.938L431.891 370.869L432.558 372.024L579.661 287.094Z" fill="url(#paint41_linear_3_434)"/>
<path d="M260.212 259.067C262.139 257.955 264.603 258.615 265.715 260.542C266.827 262.468 266.167 264.932 264.241 266.045C262.314 267.157 259.85 266.496 258.738 264.57C257.626 262.644 258.286 260.179 260.212 259.067Z" fill="url(#paint42_linear_3_434)"/>
<path d="M411.688 177.063L411.021 175.907L263.917 260.838L264.584 261.993L411.688 177.063Z" fill="url(#paint43_linear_3_434)"/>
</g>
<defs>
<linearGradient id="paint0_linear_3_434" x1="358.561" y1="427.694" x2="419.2" y2="392.684" gradientUnits="userSpaceOnUse">
<stop stop-color="#A4FFFF"/>
<stop offset="1" stop-color="#A4FFFF" stop-opacity="0"/>
</linearGradient>
<linearGradient id="paint1_linear_3_434" x1="358.564" y1="427.696" x2="419.201" y2="392.687" gradientUnits="userSpaceOnUse">
<stop stop-color="#A4FFFF"/>
<stop offset="1" stop-color="#A4FFFF" stop-opacity="0"/>
</linearGradient>
<linearGradient id="paint2_linear_3_434" x1="362.066" y1="214.645" x2="422.723" y2="179.624" gradientUnits="userSpaceOnUse">
<stop stop-color="#A4FFFF"/>
<stop offset="1" stop-color="#A4FFFF" stop-opacity="0"/>
</linearGradient>
<linearGradient id="paint3_linear_3_434" x1="362.059" y1="214.648" x2="422.699" y2="179.638" gradientUnits="userSpaceOnUse">
<stop stop-color="#A4FFFF"/>
<stop offset="1" stop-color="#A4FFFF" stop-opacity="0"/>
</linearGradient>
<linearGradient id="paint4_linear_3_434" x1="469.097" y1="210.686" x2="529.736" y2="175.676" gradientUnits="userSpaceOnUse">
<stop stop-color="#A4FFFF"/>
<stop offset="1" stop-color="#A4FFFF" stop-opacity="0"/>
</linearGradient>
<linearGradient id="paint5_linear_3_434" x1="469.098" y1="210.685" x2="529.735" y2="175.676" gradientUnits="userSpaceOnUse">
<stop stop-color="#A4FFFF"/>
<stop offset="1" stop-color="#A4FFFF" stop-opacity="0"/>
</linearGradient>
<linearGradient id="paint6_linear_3_434" x1="471.506" y1="255.757" x2="532.147" y2="220.746" gradientUnits="userSpaceOnUse">
<stop stop-color="#A4FFFF"/>
<stop offset="1" stop-color="#A4FFFF" stop-opacity="0"/>
</linearGradient>
<linearGradient id="paint7_linear_3_434" x1="471.505" y1="255.757" x2="532.144" y2="220.748" gradientUnits="userSpaceOnUse">
<stop stop-color="#A4FFFF"/>
<stop offset="1" stop-color="#A4FFFF" stop-opacity="0"/>
</linearGradient>
<linearGradient id="paint8_linear_3_434" x1="305.368" y1="427.467" x2="365.99" y2="392.467" gradientUnits="userSpaceOnUse">
<stop stop-color="#A4FFFF"/>
<stop offset="1" stop-color="#A4FFFF" stop-opacity="0"/>
</linearGradient>
<linearGradient id="paint9_linear_3_434" x1="305.374" y1="427.465" x2="366.011" y2="392.456" gradientUnits="userSpaceOnUse">
<stop stop-color="#A4FFFF"/>
<stop offset="1" stop-color="#A4FFFF" stop-opacity="0"/>
</linearGradient>
<linearGradient id="paint10_linear_3_434" x1="560.95" y1="351.891" x2="621.589" y2="316.882" gradientUnits="userSpaceOnUse">
<stop stop-color="#A4FFFF"/>
<stop offset="1" stop-color="#A4FFFF" stop-opacity="0"/>
</linearGradient>
<linearGradient id="paint11_linear_3_434" x1="560.951" y1="351.89" x2="621.588" y2="316.881" gradientUnits="userSpaceOnUse">
<stop stop-color="#A4FFFF"/>
<stop offset="1" stop-color="#A4FFFF" stop-opacity="0"/>
</linearGradient>
<linearGradient id="paint12_linear_3_434" x1="508.782" y1="253.633" x2="569.421" y2="218.623" gradientUnits="userSpaceOnUse">
<stop stop-color="#A4FFFF"/>
<stop offset="1" stop-color="#A4FFFF" stop-opacity="0"/>
</linearGradient>
<linearGradient id="paint13_linear_3_434" x1="499.97" y1="258.722" x2="530.289" y2="241.217" gradientUnits="userSpaceOnUse">
<stop stop-color="#A4FFFF"/>
<stop offset="1" stop-color="#A4FFFF" stop-opacity="0"/>
</linearGradient>
<linearGradient id="paint14_linear_3_434" x1="391.07" y1="497.05" x2="451.71" y2="462.04" gradientUnits="userSpaceOnUse">
<stop stop-color="#A4FFFF"/>
<stop offset="1" stop-color="#A4FFFF" stop-opacity="0"/>
</linearGradient>
<linearGradient id="paint15_linear_3_434" x1="382.258" y1="502.138" x2="412.577" y2="484.633" gradientUnits="userSpaceOnUse">
<stop stop-color="#A4FFFF"/>
<stop offset="1" stop-color="#A4FFFF" stop-opacity="0"/>
</linearGradient>
<linearGradient id="paint16_linear_3_434" x1="516.914" y1="93.3331" x2="577.553" y2="58.3232" gradientUnits="userSpaceOnUse">
<stop stop-color="#A4FFFF"/>
<stop offset="1" stop-color="#A4FFFF" stop-opacity="0"/>
</linearGradient>
<linearGradient id="paint17_linear_3_434" x1="508.1" y1="98.4203" x2="538.42" y2="80.9154" gradientUnits="userSpaceOnUse">
<stop stop-color="#A4FFFF"/>
<stop offset="1" stop-color="#A4FFFF" stop-opacity="0"/>
</linearGradient>
<linearGradient id="paint18_linear_3_434" x1="479.333" y1="178.465" x2="539.991" y2="143.444" gradientUnits="userSpaceOnUse">
<stop stop-color="#A4FFFF"/>
<stop offset="1" stop-color="#A4FFFF" stop-opacity="0"/>
</linearGradient>
<linearGradient id="paint19_linear_3_434" x1="470.513" y1="183.557" x2="500.833" y2="166.052" gradientUnits="userSpaceOnUse">
<stop stop-color="#A4FFFF"/>
<stop offset="1" stop-color="#A4FFFF" stop-opacity="0"/>
</linearGradient>
<linearGradient id="paint20_linear_3_434" x1="597.817" y1="260.454" x2="658.456" y2="225.444" gradientUnits="userSpaceOnUse">
<stop stop-color="#A4FFFF"/>
<stop offset="1" stop-color="#A4FFFF" stop-opacity="0"/>
</linearGradient>
<linearGradient id="paint21_linear_3_434" x1="589.006" y1="265.543" x2="619.323" y2="248.04" gradientUnits="userSpaceOnUse">
<stop stop-color="#A4FFFF"/>
<stop offset="1" stop-color="#A4FFFF" stop-opacity="0"/>
</linearGradient>
<linearGradient id="paint22_linear_3_434" x1="287.85" y1="374.68" x2="348.489" y2="339.67" gradientUnits="userSpaceOnUse">
<stop stop-color="#A4FFFF"/>
<stop offset="1" stop-color="#A4FFFF" stop-opacity="0"/>
</linearGradient>
<linearGradient id="paint23_linear_3_434" x1="287.849" y1="374.679" x2="348.488" y2="339.67" gradientUnits="userSpaceOnUse">
<stop stop-color="#A4FFFF"/>
<stop offset="1" stop-color="#A4FFFF" stop-opacity="0"/>
</linearGradient>
<linearGradient id="paint24_linear_3_434" x1="359.016" y1="175.869" x2="419.655" y2="140.859" gradientUnits="userSpaceOnUse">
<stop stop-color="#A4FFFF"/>
<stop offset="1" stop-color="#A4FFFF" stop-opacity="0"/>
</linearGradient>
<linearGradient id="paint25_linear_3_434" x1="359.014" y1="175.869" x2="419.651" y2="140.86" gradientUnits="userSpaceOnUse">
<stop stop-color="#A4FFFF"/>
<stop offset="1" stop-color="#A4FFFF" stop-opacity="0"/>
</linearGradient>
<linearGradient id="paint26_linear_3_434" x1="386.712" y1="451.467" x2="447.369" y2="416.446" gradientUnits="userSpaceOnUse">
<stop stop-color="#A4FFFF"/>
<stop offset="1" stop-color="#A4FFFF" stop-opacity="0"/>
</linearGradient>
<linearGradient id="paint27_linear_3_434" x1="386.707" y1="451.471" x2="447.345" y2="416.462" gradientUnits="userSpaceOnUse">
<stop stop-color="#A4FFFF"/>
<stop offset="1" stop-color="#A4FFFF" stop-opacity="0"/>
</linearGradient>
<linearGradient id="paint28_linear_3_434" x1="345.149" y1="88.8113" x2="405.788" y2="53.8014" gradientUnits="userSpaceOnUse">
<stop stop-color="#A4FFFF"/>
<stop offset="1" stop-color="#A4FFFF" stop-opacity="0"/>
</linearGradient>
<linearGradient id="paint29_linear_3_434" x1="345.149" y1="88.8123" x2="405.788" y2="53.8026" gradientUnits="userSpaceOnUse">
<stop stop-color="#A4FFFF"/>
<stop offset="1" stop-color="#A4FFFF" stop-opacity="0"/>
</linearGradient>
<linearGradient id="paint30_linear_3_434" x1="110.052" y1="387.009" x2="218.044" y2="324.659" gradientUnits="userSpaceOnUse">
<stop stop-color="#A4FFFF"/>
<stop offset="1" stop-color="#A4FFFF" stop-opacity="0"/>
</linearGradient>
<linearGradient id="paint31_linear_3_434" x1="137.074" y1="371.409" x2="335.73" y2="256.715" gradientUnits="userSpaceOnUse">
<stop stop-color="#A4FFFF"/>
<stop offset="1" stop-color="#A4FFFF" stop-opacity="0"/>
</linearGradient>
<linearGradient id="paint32_linear_3_434" x1="78.5159" y1="299.777" x2="186.508" y2="237.427" gradientUnits="userSpaceOnUse">
<stop stop-color="#A4FFFF"/>
<stop offset="1" stop-color="#A4FFFF" stop-opacity="0"/>
</linearGradient>
<linearGradient id="paint33_linear_3_434" x1="137.215" y1="265.888" x2="442.144" y2="89.8374" gradientUnits="userSpaceOnUse">
<stop stop-color="#A4FFFF"/>
<stop offset="1" stop-color="#A4FFFF" stop-opacity="0"/>
</linearGradient>
<linearGradient id="paint34_linear_3_434" x1="347.702" y1="447.04" x2="455.695" y2="384.691" gradientUnits="userSpaceOnUse">
<stop stop-color="#A4FFFF"/>
<stop offset="1" stop-color="#A4FFFF" stop-opacity="0"/>
</linearGradient>
<linearGradient id="paint35_linear_3_434" x1="374.725" y1="431.44" x2="573.381" y2="316.746" gradientUnits="userSpaceOnUse">
<stop stop-color="#A4FFFF"/>
<stop offset="1" stop-color="#A4FFFF" stop-opacity="0"/>
</linearGradient>
<linearGradient id="paint36_linear_3_434" x1="215.517" y1="398.068" x2="323.51" y2="335.718" gradientUnits="userSpaceOnUse">
<stop stop-color="#A4FFFF"/>
<stop offset="1" stop-color="#A4FFFF" stop-opacity="0"/>
</linearGradient>
<linearGradient id="paint37_linear_3_434" x1="242.542" y1="382.466" x2="441.196" y2="267.773" gradientUnits="userSpaceOnUse">
<stop stop-color="#A4FFFF"/>
<stop offset="1" stop-color="#A4FFFF" stop-opacity="0"/>
</linearGradient>
<linearGradient id="paint38_linear_3_434" x1="154.817" y1="243.445" x2="262.81" y2="181.095" gradientUnits="userSpaceOnUse">
<stop stop-color="#A4FFFF"/>
<stop offset="1" stop-color="#A4FFFF" stop-opacity="0"/>
</linearGradient>
<linearGradient id="paint39_linear_3_434" x1="181.839" y1="227.844" x2="380.495" y2="113.15" gradientUnits="userSpaceOnUse">
<stop stop-color="#A4FFFF"/>
<stop offset="1" stop-color="#A4FFFF" stop-opacity="0"/>
</linearGradient>
<linearGradient id="paint40_linear_3_434" x1="464.408" y1="352.85" x2="572.433" y2="290.482" gradientUnits="userSpaceOnUse">
<stop stop-color="#A4FFFF"/>
<stop offset="1" stop-color="#A4FFFF" stop-opacity="0"/>
</linearGradient>
<linearGradient id="paint41_linear_3_434" x1="464.967" y1="352.527" x2="574.879" y2="289.07" gradientUnits="userSpaceOnUse">
<stop stop-color="#A4FFFF"/>
<stop offset="1" stop-color="#A4FFFF" stop-opacity="0"/>
</linearGradient>
<linearGradient id="paint42_linear_3_434" x1="296.43" y1="242.823" x2="404.39" y2="180.492" gradientUnits="userSpaceOnUse">
<stop stop-color="#A4FFFF"/>
<stop offset="1" stop-color="#A4FFFF" stop-opacity="0"/>
</linearGradient>
<linearGradient id="paint43_linear_3_434" x1="297.01" y1="242.488" x2="406.921" y2="179.031" gradientUnits="userSpaceOnUse">
<stop stop-color="#A4FFFF"/>
<stop offset="1" stop-color="#A4FFFF" stop-opacity="0"/>
</linearGradient>
</defs>
</svg>
